<svg id="Layer_1" data-name="Layer 1" xmlns="http://www.w3.org/2000/svg" viewBox="0 0 1518.54 779.38"><defs><style>.cls-1{fill:#10162f;}.cls-2{fill:#722c93;}</style></defs><rect class="cls-1" x="1084.01" y="418.57" width="91.26" height="91.26"/><rect class="cls-1" x="1084.01" y="688.13" width="91.26" height="91.26"/><rect class="cls-1" x="1175.27" y="418.57" width="91.26" height="91.26"/><rect class="cls-1" x="1175.27" y="688.13" width="91.26" height="91.26"/><rect class="cls-1" x="992.75" y="509.82" width="91.26" height="91.26"/><rect class="cls-1" x="992.75" y="601.08" width="91.26" height="91.26"/><rect class="cls-1" x="1304.2" y="440.33" width="107.17" height="107.17"/><rect class="cls-1" x="1197.03" y="547.5" width="107.17" height="107.17"/><rect class="cls-1" x="1411.37" y="547.5" width="107.17" height="107.17"/><rect class="cls-1" x="1304.2" y="654.67" width="107.17" height="107.17"/><path class="cls-2" d="M40.88,620.28a98.26,98.26,0,0,1,22.87-33.52,102.32,102.32,0,0,1,34.53-21.41,120.81,120.81,0,0,1,43.28-7.58,121.57,121.57,0,0,1,43.56,7.58,102.12,102.12,0,0,1,34.53,21.41A97.3,97.3,0,0,1,242.38,620q8.16,19.38,8.16,43.28T242.38,707a98.43,98.43,0,0,1-22.87,33.95,103.24,103.24,0,0,1-34.68,21.85,119.71,119.71,0,0,1-43.56,7.72,120.18,120.18,0,0,1-43-7.57A102.18,102.18,0,0,1,63.75,741.5,98.32,98.32,0,0,1,40.88,708q-8.31-19.68-8.31-43.86T40.88,620.28Zm47.21,68a57,57,0,0,0,11.8,19.09,51.79,51.79,0,0,0,18.21,12.38,61.22,61.22,0,0,0,23.46,4.37A61.26,61.26,0,0,0,165,719.79a51.79,51.79,0,0,0,18.21-12.38A57.18,57.18,0,0,0,195,688.32a67.26,67.26,0,0,0,4.23-24.19A68.11,68.11,0,0,0,195,639.65a55.52,55.52,0,0,0-11.8-18.94A53,53,0,0,0,165,608.47a61.26,61.26,0,0,0-23.46-4.37,61.22,61.22,0,0,0-23.46,4.37,53,53,0,0,0-18.21,12.24,55.37,55.37,0,0,0-11.8,18.94,68.11,68.11,0,0,0-4.23,24.48A67.26,67.26,0,0,0,88.09,688.32Z"/><path class="cls-2" d="M330.38,560.68V684.53q0,20.1,10.5,29.87t27.39,9.76q17.19,0,27.68-9.76t10.49-29.87V560.68h48.37V690.07q0,18.93-6.12,33.95a69,69,0,0,1-17.48,25.35,76.27,76.27,0,0,1-27.39,15.73,120.92,120.92,0,0,1-71.4,0A76.27,76.27,0,0,1,305,749.37,69.08,69.08,0,0,1,287.55,724q-6.12-15-6.12-33.95V560.68Z"/><path class="cls-2" d="M638.69,560.68v42.55H583V767.58h-49V603.23H478.13V560.68Z"/><path class="cls-2" d="M712.41,560.68v206.9h-49V560.68Z"/><path class="cls-2" d="M805.22,604.39a14,14,0,0,0-3.64,19.82,25.24,25.24,0,0,0,7.57,6.41,83.32,83.32,0,0,0,12.09,5.68q7.14,2.78,16.18,6a174.85,174.85,0,0,1,22.87,10.05A73,73,0,0,1,877.63,665a48.55,48.55,0,0,1,11.07,17q3.79,9.76,3.79,22.88a67.15,67.15,0,0,1-5.39,27.39A56.21,56.21,0,0,1,871.66,753a70.29,70.29,0,0,1-24.34,13,106,106,0,0,1-32.05,4.51,133,133,0,0,1-72.56-21L763.4,709.3A98.09,98.09,0,0,0,789.92,723a86.24,86.24,0,0,0,27.39,4.67q25.35,0,25.35-18.07a15.09,15.09,0,0,0-2-8,20.66,20.66,0,0,0-6.41-6.27,68.35,68.35,0,0,0-11.36-5.83q-7-2.91-17.19-6.7a207.22,207.22,0,0,1-23.17-10.49,79.87,79.87,0,0,1-17.78-12.68A48.67,48.67,0,0,1,753.35,643q-3.95-9.46-3.94-22.29a64,64,0,0,1,5.25-26.52,55,55,0,0,1,14.71-19.67,68,68,0,0,1,22.44-12.38,88.62,88.62,0,0,1,28.41-4.37,98,98,0,0,1,24.63,2.91,83.48,83.48,0,0,1,19.81,7.73,59.91,59.91,0,0,1,14.72,11.36,51.16,51.16,0,0,1,9.32,13.55l-38.46,23.31a36.66,36.66,0,0,0-11.37-11.51q-7.27-4.8-18.35-4.81Q811.48,600.31,805.22,604.39Z"/><path class="cls-2" d="M263.48,462a18.65,18.65,0,0,0-6.53,4.9,22.61,22.61,0,0,0-4.13,7.4,28,28,0,0,0-1.46,9.15,28.57,28.57,0,0,0,1.75,10.14,22.24,22.24,0,0,0,5.13,8,23.27,23.27,0,0,0,8.21,5.24,30.56,30.56,0,0,0,11,1.87,34.43,34.43,0,0,0,11.65-1.81,50.43,50.43,0,0,0,8.39-3.79l7.34,16.08a52.83,52.83,0,0,1-12.7,5.66A56.1,56.1,0,0,1,276,527a53.87,53.87,0,0,1-18.3-3,40.34,40.34,0,0,1-14.21-8.57,38.54,38.54,0,0,1-9.27-13.69,48.09,48.09,0,0,1-3.32-18.35,45.25,45.25,0,0,1,3.26-17.66A38.13,38.13,0,0,1,243,452.71a37.32,37.32,0,0,1,13.11-8,49.37,49.37,0,0,1,27.39-1.46,37.57,37.57,0,0,1,9,3.44,33.16,33.16,0,0,1,6.88,5,36,36,0,0,1,5.07,6l-14.57,11.42a23.69,23.69,0,0,0-6.94-6.35q-4.12-2.5-10.78-2.5A20.68,20.68,0,0,0,263.48,462Z"/><path class="cls-2" d="M311.2,466.93a39.38,39.38,0,0,1,9.14-13.41A40.9,40.9,0,0,1,334.15,445a51.27,51.27,0,0,1,34.73,0,40.8,40.8,0,0,1,13.81,8.56,38.83,38.83,0,0,1,9.09,13.29A44.14,44.14,0,0,1,395,484.12a45.42,45.42,0,0,1-3.26,17.48,39.1,39.1,0,0,1-9.15,13.57,41.21,41.21,0,0,1-13.86,8.74,50.49,50.49,0,0,1-34.62.06,40.9,40.9,0,0,1-13.81-8.56A39.28,39.28,0,0,1,311.2,502a47.83,47.83,0,0,1,0-35.07Zm18.87,27.21a22.8,22.8,0,0,0,4.72,7.63,20.59,20.59,0,0,0,7.29,5,26,26,0,0,0,18.76,0,20.55,20.55,0,0,0,7.28-5,22.64,22.64,0,0,0,4.72-7.63,26.84,26.84,0,0,0,1.69-9.67,27.15,27.15,0,0,0-1.69-9.79,22,22,0,0,0-4.72-7.58,20.94,20.94,0,0,0-7.28-4.89,26,26,0,0,0-18.76,0,21,21,0,0,0-7.29,4.89,22.18,22.18,0,0,0-4.72,7.58,27.37,27.37,0,0,0-1.69,9.79A27.06,27.06,0,0,0,330.07,494.14Z"/><path class="cls-2" d="M440,443.1A50.36,50.36,0,0,1,457.5,446a39.59,39.59,0,0,1,13.63,8.27A37,37,0,0,1,480,467.22a43.61,43.61,0,0,1,3.15,16.9,44.5,44.5,0,0,1-3.15,17,37.82,37.82,0,0,1-8.86,13.17,40.12,40.12,0,0,1-13.63,8.51,48.56,48.56,0,0,1-17.48,3H408V443.1Zm15.85,59.37q6.64-6.47,6.64-18.24a28.65,28.65,0,0,0-1.75-10.37,20.3,20.3,0,0,0-5-7.63,21.4,21.4,0,0,0-7.75-4.66A30.29,30.29,0,0,0,437.92,460H427.55v48.95h10.37Q449.23,508.94,455.87,502.47Z"/><path class="cls-2" d="M550.49,460.23H515.64v16h32.63v16.55H515.64v16h35.43v17.13h-55V443.1h54.42Z"/><path class="cls-2" d="M618.3,493.67l16.32-50.57H654l15.74,49.52,15.38-49.52h19.23l-27.62,82.74H660.61l-17.25-56.41-17.71,56.41H609.8L582.18,443.1H603.5Z"/><path class="cls-2" d="M733.08,443.1v82.74H713.5V443.1Z"/><path class="cls-2" d="M807.2,443.1v17H784.94v65.73H765.36V460.11H743v-17Z"/><path class="cls-2" d="M817.09,443.1h19.58V476h36.24V443.1h19.58v82.74H872.91V493H836.67v32.87H817.09Z"/></svg>